<?xml version="1.0" encoding="UTF-8" standalone="no"?>
<!-- Created with Inkscape (http://www.inkscape.org/) -->

<svg
   width="233"
   height="63.999996"
   viewBox="0 0 61.647915 16.933332"
   version="1.1"
   id="svg1"
   xml:space="preserve"
   xmlns="http://www.w3.org/2000/svg"
   xmlns:svg="http://www.w3.org/2000/svg"><defs
     id="defs1" /><g
     id="layer1"><g
       id="g859"
       transform="matrix(0.4001106,0,0,0.43008804,-0.87634656,-0.15946591)"><g
         id="g2799"
         transform="matrix(0.17543904,0,0,-0.17543904,24.479968,25.048698)"><path
           d="m 0,0 c 0,-11.372 -9.181,-20.827 -20.597,-20.827 h -0.165 -88.621 c -7.215,12.267 -11.957,26.155 -13.547,40.991 h 102.618 c 0.664,-0.014 1.558,0.007 1.965,0.014 0.426,0.009 0.984,-0.056 0.984,-0.056 C -7.511,18.559 0,10.259 0,0"
           style="fill:#f1aa4b;fill-opacity:1;fill-rule:nonzero;stroke:none"
           id="path2801" /></g><g
         id="g2803"
         transform="matrix(0.17543904,0,0,-0.17543904,20.916363,17.730101)"><path
           d="m 0,0 h -102.691 c 1.514,15.098 6.296,29.23 13.621,41.686 H 0.166 C 11.639,41.494 20.88,32.375 20.88,20.854 20.88,9.822 12.049,0.896 1.249,-0.018 Z"
           style="fill:#f1aa4b;fill-opacity:1;fill-rule:nonzero;stroke:none"
           id="path2805" /></g><g
         id="g2807"
         transform="matrix(0.17543904,0,0,-0.17543904,38.928671,19.559719)"><path
           d="m 0,0 c 0,-56.854 -46.088,-102.94 -102.94,-102.94 -27.977,0 -53.351,11.158 -71.908,29.273 h 72.344 c 22.915,0.323 41.389,19.26 41.389,42.161 0,12.36 -5.381,23.47 -13.936,31.13 8.913,7.734 14.547,19.142 14.547,31.868 0,23.235 -18.788,42.079 -42,42.175 h -72.348 c 18.556,18.115 43.93,29.278 71.912,29.278 C -46.088,102.945 0,56.854 0,0"
           style="fill:#f1aa4b;fill-opacity:1;fill-rule:nonzero;stroke:none"
           id="path2809" /></g><text
         xml:space="preserve"
         style="font-style:normal;font-variant:normal;font-weight:bold;font-stretch:normal;font-size:13.073px;line-height:1.25;font-family:'Abyssinica SIL';-inkscape-font-specification:'Abyssinica SIL, Bold';font-variant-ligatures:none;font-variant-caps:normal;font-variant-numeric:normal;font-variant-east-asian:normal;fill:#f1aa4b;fill-opacity:1;stroke-width:0.264992"
         x="42.995388"
         y="32.684395"
         id="text6040"><tspan
           id="tspan24489"
           x="42.995388"
           y="32.684395"
           dx="0 1.0015458 1.0015458 1.0015458 1.0015458 1.0015458 1.0015458 1.0015458"
           style="stroke-width:0.264992">VENTURES</tspan></text><text
         xml:space="preserve"
         style="font-style:normal;font-variant:normal;font-weight:bold;font-stretch:normal;font-size:18.7627px;line-height:1.25;font-family:Georgia;-inkscape-font-specification:'Georgia, Bold';font-variant-ligatures:none;font-variant-caps:normal;font-variant-numeric:normal;font-variant-east-asian:normal;fill:#f1aa4b;fill-opacity:1;stroke-width:0.194115"
         x="42.504742"
         y="19.484528"
         id="text22825"><tspan
           id="tspan24469"
           x="42.504742"
           y="19.484528"
           dx="0 1.196676 1.196676 1.196676 2.3299999 2.3299999 1.196676"
           style="stroke-width:0.194115">BENZYME</tspan></text></g></g></svg>
