<?xml version="1.0" encoding="UTF-8" standalone="no"?>
<!-- Created with Inkscape (http://www.inkscape.org/) -->

<svg
   width="52"
   height="52"
   viewBox="0 0 13.758333 13.758334"
   version="1.1"
   id="svg4112"
   inkscape:version="1.1.2 (0a00cf5339, 2022-02-04)"
   sodipodi:docname="favicon-52x52.svg"
   xmlns:inkscape="http://www.inkscape.org/namespaces/inkscape"
   xmlns:sodipodi="http://sodipodi.sourceforge.net/DTD/sodipodi-0.dtd"
   xmlns="http://www.w3.org/2000/svg"
   xmlns:svg="http://www.w3.org/2000/svg">
  <sodipodi:namedview
     id="namedview4114"
     pagecolor="#ffffff"
     bordercolor="#666666"
     borderopacity="1.0"
     inkscape:pageshadow="2"
     inkscape:pageopacity="0.0"
     inkscape:pagecheckerboard="0"
     inkscape:document-units="mm"
     showgrid="false"
     units="px"
     inkscape:snap-page="true"
     inkscape:zoom="1.877186"
     inkscape:rotation="5"
     inkscape:cx="71.33028"
     inkscape:cy="162.43028"
     inkscape:window-width="1850"
     inkscape:window-height="1016"
     inkscape:window-x="0"
     inkscape:window-y="0"
     inkscape:window-maximized="1"
     inkscape:current-layer="layer1" />
  <defs
     id="defs4109">
    <clipPath
       clipPathUnits="userSpaceOnUse"
       id="clipPath2517">
      <path
         d="M 0,589.265 H 589.265 V 0 H 0 Z"
         id="path2515" />
    </clipPath>
    <clipPath
       clipPathUnits="userSpaceOnUse"
       id="clipPath2541">
      <path
         d="M 0,589.265 H 589.265 V 0 H 0 Z"
         id="path2539" />
    </clipPath>
    <clipPath
       clipPathUnits="userSpaceOnUse"
       id="clipPath2581">
      <path
         d="M 0,589.265 H 589.265 V 0 H 0 Z"
         id="path2579" />
    </clipPath>
    <clipPath
       clipPathUnits="userSpaceOnUse"
       id="clipPath2797">
      <path
         d="M 0,589.265 H 589.265 V 0 H 0 Z"
         id="path2795" />
    </clipPath>
    <clipPath
       clipPathUnits="userSpaceOnUse"
       id="clipPath2821">
      <path
         d="M 0,589.265 H 589.265 V 0 H 0 Z"
         id="path2819" />
    </clipPath>
    <clipPath
       clipPathUnits="userSpaceOnUse"
       id="clipPath2861">
      <path
         d="M 0,589.265 H 589.265 V 0 H 0 Z"
         id="path2859" />
    </clipPath>
  </defs>
  <g
     inkscape:label="Layer 1"
     inkscape:groupmode="layer"
     id="layer1">
    <g
       id="g4306"
       transform="matrix(0.06292758,0,0,0.06292758,0.21933163,0.2193317)">
      <g
         inkscape:label="background"
         id="layer1-5" />
      <g
         id="layer3"
         inkscape:label="logo">
        <g
           id="g2791"
           transform="matrix(0.97850099,0,0,-0.97850099,-179.54096,453.77399)">
          <g
             id="g2793"
             clip-path="url(#clipPath2797)">
            <g
               id="g2799"
               transform="translate(311.9674,324.2958)">
              <path
                 d="m 0,0 c 0,-11.372 -9.181,-20.827 -20.597,-20.827 h -0.165 -88.621 c -7.215,12.267 -11.957,26.155 -13.547,40.991 h 102.618 c 0.664,-0.014 1.558,0.007 1.965,0.014 0.426,0.009 0.984,-0.056 0.984,-0.056 C -7.511,18.559 0,10.259 0,0"
                 style="fill:#f1aa4b;fill-opacity:1;fill-rule:nonzero;stroke:none"
                 id="path2801" />
            </g>
            <g
               id="g2803"
               transform="translate(291.6549,366.0117)">
              <path
                 d="m 0,0 h -102.691 c 1.514,15.098 6.296,29.23 13.621,41.686 H 0.166 C 11.639,41.494 20.88,32.375 20.88,20.854 20.88,9.822 12.049,0.896 1.249,-0.018 Z"
                 style="fill:#f1aa4b;fill-opacity:1;fill-rule:nonzero;stroke:none"
                 id="path2805" />
            </g>
            <g
               id="g2807"
               transform="translate(394.3248,355.5829)">
              <path
                 d="m 0,0 c 0,-56.854 -46.088,-102.94 -102.94,-102.94 -27.977,0 -53.351,11.158 -71.908,29.273 h 72.344 c 22.915,0.323 41.389,19.26 41.389,42.161 0,12.36 -5.381,23.47 -13.936,31.13 8.913,7.734 14.547,19.142 14.547,31.868 0,23.235 -18.788,42.079 -42,42.175 h -72.348 c 18.556,18.115 43.93,29.278 71.912,29.278 C -46.088,102.945 0,56.854 0,0"
                 style="fill:#f1aa4b;fill-opacity:1;fill-rule:nonzero;stroke:none"
                 id="path2809" />
            </g>
          </g>
        </g>
      </g>
    </g>
  </g>
</svg>
